<svg version="1" xmlns="http://www.w3.org/2000/svg" width="346.667" height="346.667" viewBox="0 0 260.000000 260.000000"><path d="M25.6 24.6c-.3.9-.6 5.3-.6 9.8 0 7.5.3 8.7 3.1 12.9 3 4.6 13.3 13.7 23.9 21.2 7.9 5.5 7.9 5.5 1.3 4-12.6-2.9-26-9.1-31.2-14.3l-2.4-2.4.7 7.2c.7 7.9 2.3 12.7 5.1 15 1 .8 9 5.1 17.8 9.6l16 8.1-4.6 1.1c-2.5.7-6.1 1.2-7.9 1.2-4.7 0-14.4-2.6-20.3-5.5-2.7-1.3-5.1-2.2-5.3-2-.2.2 1.3 3.9 3.4 8.2 2.7 5.3 5 8.5 7.2 10 4.6 3 13 4.6 22.3 4.1 4.4-.2 7.9 0 7.9.4 0 1.3-8.5 7.6-14 10.5-4.6 2.3-6.7 2.8-13.2 2.8-8.5 0-8.6 0-5.3 6.5 2.7 5.2 5.2 6.5 12.9 6.5 7.3 0 13.3-2.1 21.5-7.6l3.3-2.2-1.6 3c-2.8 5.5-6.6 9.1-12.4 12-4.7 2.3-6.9 2.7-12.9 2.7l-7.3-.1 1.6 2.6c2.6 4 6.6 8.1 9.6 9.7 6.9 3.6 16.9-.4 29.1-11.6 7.9-7.3 9.1-7.4 6.2-.3-2.3 5.5-6.2 10.2-11.4 13.5l-4.6 3 5-.5c7.6-.8 15.8-4.3 21.1-9 5.2-4.6 10.4-12 10.4-14.9 0-1.5-2.4-7.3-3.5-8.6-.2-.2-2.1.6-4.4 1.7-2.2 1.2-4.9 2.1-6 2.1-2.2 0-6.8-5-8.7-9.7-.9-2.1-2.3-3.3-4.1-3.7-1.6-.4-4.1-1.7-5.7-2.9-2.7-2.2-2.8-2.4-1.6-6.7.9-3.3.9-4.5.1-4.8-.7-.2-2.5-1.5-4.2-2.9l-3-2.5 2.1-3.5 2-3.5-3-3.4c-1.6-1.9-3-4.1-3-4.9 0-.7 1.6-3 3.5-5l3.4-3.7-1.9-3.9c-2.8-5.4-2.5-6.5 2-9.1 3.6-2.1 4-2.7 4-6.3v-4l-10.2-6C44.8 41 32.6 31.8 29 26.8c-2.2-2.9-2.9-3.4-3.4-2.2zM231.6 26.1c-2.6 4.3-15.1 13.9-28.2 21.7L192 54.5v4c0 3.6.4 4.2 4 6.3 4.5 2.6 4.8 3.7 2 9.1l-1.9 3.9 3.4 3.7c1.9 2 3.5 4.3 3.5 5 0 .8-1.4 3-3 4.9l-3 3.4 2 3.5 2.1 3.5-3 2.5c-1.7 1.4-3.5 2.7-4 2.9-.7.2-.7 1.8 0 4.8 1 4.3.9 4.6-1.8 6.7-1.5 1.2-4 2.5-5.6 2.9-1.8.4-3.2 1.6-4.1 3.7-1.9 4.7-6.5 9.7-8.7 9.7-1.1 0-3.8-.9-6-2.1-2.3-1.1-4.2-1.9-4.4-1.7-1.1 1.3-3.5 7.1-3.5 8.6 0 2.9 5.2 10.3 10.4 14.9 5.3 4.7 13.5 8.2 21.1 9l5 .5-4.6-3c-5.2-3.3-9.1-8-11.4-13.5-2.9-7.1-1.7-7 6.2.3 12.2 11.2 22.2 15.2 29.1 11.6 3-1.6 7-5.7 9.6-9.7l1.6-2.6-7.3.1c-11.4.1-20.4-5.1-25.3-14.7l-1.6-3 3.3 2.2c11.2 7.4 23.5 10 29.6 6.2 3-1.9 5.3-5.2 6.7-9.6.5-1.9.1-2-7.2-2-6.5 0-8.6-.5-13.2-2.8-5.5-2.9-14-9.2-14-10.5 0-.4 3.5-.6 7.9-.4 9.3.5 17.7-1.1 22.3-4.1 2.2-1.5 4.5-4.7 7.2-10 2.1-4.3 3.6-8 3.4-8.2-.2-.2-2.6.7-5.3 2-5.9 2.9-15.6 5.5-20.3 5.5-1.8 0-5.4-.5-7.9-1.2l-4.6-1.1 16-8.1c8.8-4.5 16.8-8.8 17.8-9.6 2.8-2.3 4.4-7.2 5.1-15.2.7-7.2.7-7.3-1.2-5.1-4.5 5.2-19.9 12.3-33.3 15.2-4.8 1.1-4.8 1 2.9-4.4 10.6-7.5 20.9-16.6 23.9-21.2 2.9-4.3 3.1-5.3 3.1-13.2 0-10.3-.9-12.3-3.4-8zM143.9 27.4c1 1.1.7 1.7-1.1 3-3.1 2.2-10.1 2-14.9-.5-3.6-1.8-4.3-1.9-5.7-.6-1 .8-4.8 2-8.6 2.7-7.8 1.4-10.6 3.6-10.6 8 0 3.3 1.1 3.8 3 1.5 2.1-2.5 7.4-1.8 12.6 1.8 2.6 1.8 4.9 3.8 5.1 4.4.5 1.5-11.3 2.7-17.2 1.9-2.9-.5-5-1.5-6-2.9-1.5-2.1-1.5-2.1-1.5-.1 0 3.8 1.9 4.4 14.2 4.4 9 0 11.8.3 11.8 1.3 0 2.8-2.5 3.7-10.2 3.7-9 0-10.6 1.8-2 2.2 5 .3 5.7.6 6 2.5.2 1.3-.6 2.7-2 3.8l-2.3 1.7 2.5-.7c4.3-1.1 6.7-2.6 8.1-5.1l1.3-2.4 1.3 3.1c1.6 3.8 3.3 3.4 4.8-1.2 1.1-3 1.3-3.2 1.9-1.3.9 2.9 4.4 6 9 7.9l3.8 1.6-2.1-2.9c-2.9-4.1-4.1-7.7-5.2-14.9-1.1-7.5-.1-10.6 4.6-15 1.9-1.8 3.5-4 3.5-5 0-2.3-1.8-4.3-3.8-4.3-1.1 0-1.2.3-.3 1.4zm-17.1 9.9c-1.4 2.9-4.8 3.7-4.8 1.2 0-.9-.9-1.5-2.2-1.6-1.6 0-.9-.6 2.2-1.8 5.3-2.1 6.5-1.5 4.8 2.2z"/><path d="M79.7 42c-4 9.1-4.8 18-2.2 23 1.5 3 1.5 3-1.4 3-1.6 0-4.1.4-5.6 1-2.9 1.1-2.6 2.5 2 7.4 1.5 1.6 2.3 3.2 1.8 3.5-.5.3-2.6 1.6-4.6 2.9-2 1.3-3.7 2.8-3.7 3.3 0 1.3 4.2 3.8 7.9 4.5l3.2.7-4.8 4.3-4.8 4.2 3.7 1.6c2.1.9 4.9 1.6 6.4 1.6h2.6l-3.6 4c-2 2.2-3.6 4.7-3.6 5.5 0 2 5.2 2 9.2-.1 2.9-1.5 3.1-1.5 2.4.2-1.7 4.3-1.8 8.2-.2 11.2 1.8 3.5 3.2 3.9 6.2 1.8 1.6-1.2 2-3 2.4-12.3l.5-10.8-3.6-3.5c-3-2.8-3.8-4.5-4.4-8.8-.4-3-.3-5.8.1-6.2.5-.5 2.7-.4 5 .2 5.9 1.6 9.1.5 10.2-3.6 1.9-6.7.5-8.9-10.1-16.3-5.6-3.9-8.6-9.4-9.6-17.7-.4-3.3-1.1-5.4-1.4-4.6zM178.8 46.8c-.8 7.8-3.9 13.6-9.5 17.5-10.6 7.4-12 9.6-10.1 16.3 1.1 4.1 4.3 5.2 10.2 3.6 2.3-.6 4.5-.7 5-.2.4.4.5 3.2.1 6.2-.6 4.3-1.4 6-4.4 8.8l-3.6 3.5.5 10.8c.4 9.3.8 11.1 2.4 12.3 3 2.1 4.4 1.7 6.2-1.8 1.6-3 1.5-6.9-.2-11.2-.7-1.7-.5-1.7 2.4-.2 4 2.1 9.2 2.1 9.2.1 0-.8-1.6-3.3-3.6-5.5l-3.6-4h2.6c1.5 0 4.3-.7 6.4-1.6l3.7-1.6-4.8-4.2-4.8-4.3 3.2-.7c3.7-.7 7.9-3.2 7.9-4.5 0-.5-1.7-2-3.7-3.3-2-1.3-4.1-2.6-4.6-2.9-.5-.3.3-1.9 1.8-3.5 4.6-4.9 4.9-6.3 2-7.4-1.5-.6-4-1-5.6-1-2.9 0-2.9 0-1.4-3 2-3.8 1.9-11.7-.1-17.7-2.3-7-3-7.1-3.6-.5zM123.5 71.6c-1.1.8-3.8 2-6 2.6-3.9 1-4.2 1.3-11 15.1l-7 14.1v9.6c0 11.4.7 13.2 13.2 33.3 9.8 15.7 10.9 19.7 7.5 26.3-1.1 2.1-3.6 5.5-5.6 7.3-2 1.9-3.6 3.9-3.6 4.4 0 .5 2.3.7 5 .5 3.8-.4 5.8-1.2 8-3.3l2.8-2.7.7 5.4c1.3 10.3 3.8 10.2 5-.2l.7-5.7 2.7 2.8c2.9 2.8 8.8 4.6 11.7 3.5 1.3-.5.9-1.4-2.4-5-5.8-6.3-7.5-10.1-6.9-15.3.4-4.2 1.3-5.8 13.4-25.5 7.6-12.4 9.6-18.6 9.1-28.3-.3-6.7-.9-8.5-7.3-21.4-6.8-13.7-7.1-14.1-11-15.2-2.2-.6-5-1.7-6.2-2.4-1.8-1.2-2.3-1.2-3.3 0-1.6 1.9-3.9 1.9-5.9.1-1.4-1.3-1.9-1.2-3.6 0zm13.1 13.1c4.5 4.9 5.5 8.4 3.5 12.2-.8 1.5-.5 1.6 2.4 1.3 2.8-.3 4.2.3 8.4 3.8 7.6 6.4 7.5 7.5-.9 14.5-4.4 3.7-6.5 4.1-11.2 2-1.5-.6-1.8-.2-1.8 2.9 0 2.3.8 4.5 2 5.8 1.2 1.4 2 3.5 2 5.7 0 3-.9 4.5-4.9 8.4-3.6 3.6-5.4 4.7-6.8 4.3-2.3-.7-10.3-10.3-10.3-12.3 0-2.1 2.9-7.3 4-7.3.6 0 1-1.8 1-4.1 0-3.5-.2-4-1.7-3.4-5.6 2.4-7.9 1.8-13.2-3.3-2.8-2.8-5.1-5.6-5.1-6.4 0-.8 2.3-3.6 5.1-6.2 4.4-4.1 5.6-4.7 8.6-4.4 2.8.3 3.2.1 2.6-1.1-1.8-4-.7-7.9 3.8-12.5 2.4-2.5 5.2-4.6 6.3-4.6 1 0 3.8 2.1 6.2 4.7z"/><path d="M129.2 86.2c-.6.6-1.2 1.7-1.2 2.4 0 .6-.9 1.4-2 1.7-1.1.3-2 1.2-2 2.1 0 .9.8 1.6 2 1.6 1.8 0 2 .7 2 6.6v6.5l-4.7-.3c-4.1-.3-4.8-.6-5.1-2.6-.4-2.7-2.3-2.4-3.7.6-.5 1.1-1.7 2.3-2.7 2.5-2.3.6-2.3 2.8 0 3.4 1 .2 2.2 1.4 2.7 2.5 1.4 3 3.3 3.3 3.7.6.3-2 1-2.3 5.1-2.6l4.7-.3V121c0 9.3-.2 10.2-2 10.7-1.1.3-2 1.2-2 2s.9 1.7 2 2c1.1.3 2 1.1 2 1.8s.7 1.8 1.5 2.5c1.2 1 1.7.8 2.6-1.3.6-1.4 2-2.8 3-3 2.5-.7 2.5-3.7 0-3.7-2.4 0-3.1-2.6-3.1-12.8V111h4.5c3.9 0 4.7.3 5.5 2.5 1 2.6 4 2.5 4-.1 0-.8 1.1-1.9 2.5-2.4 3.1-1.2 3.2-2.8.1-3.9-1.3-.5-2.6-1.9-2.9-3-.7-2.8-3.5-2.7-3.9.1-.3 2-.9 2.3-4.8 2.3-4.2 0-4.5-.2-4.8-2.9-.6-5.2.7-9.6 2.8-9.6 2.6 0 2.6-3 0-3.7-1.1-.3-2-.8-2-1.2 0-.4-.6-1.5-1.3-2.4-1-1.4-1.5-1.5-2.5-.5zM100.7 151.8c-4 6.5-8.4 10.7-13.2 12.8l-3 1.2 3.7.7c2.3.4 5.6.1 8.8-.8 4.8-1.4 5.1-1.4 4.4.1-1.2 3-1.6 11.6-.5 14.2 1 2.5 1 2.5 1-.6.1-3.9 4.3-12.3 8-15.8l3-2.9-2.9-5.6c-5.2-10.2-5.1-10.1-9.3-3.3zM153.8 148.2c-.9 1.3-2.7 4.6-4.1 7.4l-2.6 5.1 3 2.9c3.7 3.5 7.9 11.9 8 15.8 0 3.1 0 3.1 1 .6 1.1-2.6.7-11.2-.5-14.2-.7-1.5-.4-1.5 4.4-.1 3.2.9 6.5 1.2 8.8.8l3.7-.7-3-1.2c-4.8-2-9.2-6.3-13.1-12.7-2-3.2-3.8-5.9-3.9-5.9-.2 0-.9 1-1.7 2.2zM51.2 170.2c-1.7 1.7-1.5 3.3.2 1.9.8-.7 2.2-1.1 3.2-.9.9.2 1.9-.3 2.1-1 .6-1.6-3.9-1.6-5.5 0zM203.3 170.2c.2.7 1.2 1.2 2.1 1 1-.2 2.4.2 3.2.9 1.7 1.4 1.9-.2.2-1.9-1.6-1.6-6.1-1.6-5.5 0zM60.2 172.2c-1.9 1.9-1.4 4.4 1.3 6.2 1.4.9 2.5 2.3 2.5 3.2 0 1.2-.8 1.4-4.3.9-3.5-.5-4.6-.3-6.1 1.3-1.1 1.3-1.5 2.8-1.1 4.1 1 3.2 4.2 3.5 8.9 1 3-1.5 5.1-2 6.9-1.5 4 1 3.4 4.1-1.8 8.8-2.4 2.2-4.7 4.9-5 5.9-1 3 1.2 5.9 4.5 5.9s4.3-1.4 6.6-9c2.2-7.5 6.4-9.6 12.2-6.3 2.6 1.5 3.2 1.5 4.6.3 1-.7 1.6-2.3 1.4-3.4-.3-1.8-1-2.1-5.2-2.1-6.2 0-7-1.8-1.9-4.4 3.7-1.9 10.1-7.7 9.2-8.5-.2-.2-2.3-.6-4.5-1-3.2-.4-4.3-.2-4.7.9-.4.8-2.5 2.8-4.8 4.5-6.9 4.9-12.9 3.7-12.9-2.8 0-1-.8-2.6-1.8-3.5-2.2-2-2.5-2-4-.5zM195.7 172.8c-1 1-1.7 2.6-1.7 3.6 0 6.3-6.1 7.5-12.9 2.6-2.3-1.7-4.4-3.7-4.8-4.5-.4-1.1-1.5-1.3-4.7-.9-2.2.4-4.3.8-4.5 1-.9.8 5.5 6.6 9.2 8.5 5.1 2.6 4.3 4.4-1.9 4.4-4.2 0-4.9.3-5.2 2.1-.2 1.1.4 2.7 1.4 3.4 1.4 1.2 2 1.2 4.6-.3 5.8-3.3 10-1.2 12.2 6.3 2.3 7.6 3.3 9 6.6 9s5.5-2.9 4.5-5.9c-.3-1-2.6-3.7-5-5.9-5.2-4.7-5.8-7.8-1.8-8.8 1.8-.5 3.9 0 6.9 1.5 4.7 2.5 7.9 2.2 8.9-1 .4-1.3 0-2.8-1.1-4.1-1.5-1.6-2.6-1.8-6.1-1.3-3.5.5-4.3.3-4.3-.9 0-.9 1.1-2.3 2.5-3.2 2.7-1.8 3.2-4.3 1.3-6.2-1.6-1.6-2.2-1.5-4.1.6zM47.2 188.2c-1.5 1.5-1.6 7.5 0 8.4.7.5.9.2.5-.8-.3-.9 0-2.4.7-3.4 1.7-2.4.6-6-1.2-4.2zM210.8 188.8c-.3 1 .1 2.7.8 3.6.7 1 1 2.5.7 3.4-.4 1-.2 1.3.5.8 1.7-1 1.5-7.1-.2-8.5-1.1-.9-1.5-.7-1.8.7zM163.6 190.9c-1.5 1.7-1.7 2.5-.8 4.3l1.1 2.3v-2.2c.1-1.2.6-2.3 1.2-2.5.6-.2 1-1.2.8-2.2-.4-1.7-.5-1.7-2.3.3zM93 191.5c0 .8.4 1.5.8 1.5.5 0 1.4 1 2 2.2l1.1 2.3v-2.6c.1-2.4-1.5-4.9-3.1-4.9-.4 0-.8.7-.8 1.5zM115 192.8c-3.5.2-7.1.9-8 1.6-.8.8-3.8 2.5-6.6 3.9-9.9 5-15.3 11.8-15.4 19.3 0 3.2 4.1 12.4 6.5 14.4 1.2 1 1.2.6.3-2.6-1.7-6.3-.6-15.9 2.1-18.8 1.8-2 2.8-2.3 4.2-1.6 2.6 1.4 7.6 1.2 10.8-.4 4.7-2.5 13.8-13.4 12.9-15.4-.2-.4-3.2-.6-6.8-.4zM138 193.5c0 2.7 8.8 12.8 13.2 15.1 3.1 1.6 8.1 1.8 10.7.4 1.4-.7 2.4-.4 4.2 1.6 2.7 2.9 3.8 12.5 2.1 18.8-.9 3.2-.9 3.6.3 2.6 2.4-2 6.5-11.2 6.5-14.4-.1-7.5-5.5-14.3-15.4-19.3-2.8-1.4-5.8-3.1-6.6-3.8-1.8-1.6-15-2.5-15-1z"/><path d="M123.5 205.7c-5.2 7.7-12.9 12.3-20.6 12.3-4.1 0-4.2.1-2.5 1.9 1 1.1 2.9 2.2 4.4 2.6l2.6.6-3.2 2.1c-4.2 2.6-5.2 6.3-2.4 9 2.5 2.6 4.6 1.9 7.1-2.3l2-3.2 1.4 3.6c1.5 3.4 4.2 5.7 6.8 5.7.7 0 .3-1.1-1-2.4-3.8-4-3.9-10.4-.5-17.3l2.9-5.8.6 7.5c.7 8.4 2.7 13.1 6.4 15.6 2.3 1.5 2.7 1.5 5 0 3.7-2.5 5.7-7.2 6.4-15.6l.6-7.5 2.9 5.8c3.4 6.9 3.3 13.3-.5 17.3-1.3 1.3-1.7 2.4-1 2.4 2.6 0 5.3-2.3 6.8-5.7l1.4-3.6 2 3.2c2.5 4.2 4.6 4.9 7.1 2.3 2.8-2.7 1.8-6.4-2.4-9l-3.2-2.1 2.6-.6c1.5-.4 3.4-1.5 4.4-2.6 1.7-1.8 1.6-1.9-2.5-1.9-7.7 0-15.4-4.6-20.6-12.3-2.5-3.8-3.4-4.4-6.5-4.4s-4 .6-6.5 4.4zM57.7 207.7c-1.5 1.4-.6 6.1 1.4 7.9 2.2 1.9 2.2 1.9 1.1-.1-.6-1.2-.7-2.7-.2-3.5.9-1.6-1.2-5.5-2.3-4.3zM200.3 208.9c-.6 1-.8 2.4-.3 3.1.5.8.4 2.3-.2 3.4-1.1 2.1-1.1 2.1 1.1.2 1.2-1.1 2.1-3.1 2.1-4.7 0-3.4-1.2-4.4-2.7-2z"/></svg>